<!DOCTYPE svg PUBLIC "-//W3C//DTD SVG 1.1//EN" "http://www.w3.org/Graphics/SVG/1.1/DTD/svg11.dtd">
<!-- Uploaded to: SVG Repo, www.svgrepo.com, Transformed by: SVG Repo Mixer Tools -->
<svg fill="#214A2B" height="800px" width="800px" version="1.1" id="Layer_1" xmlns="http://www.w3.org/2000/svg" xmlns:xlink="http://www.w3.org/1999/xlink" viewBox="0 0 299.01 299.01" xml:space="preserve">
<g id="SVGRepo_bgCarrier" stroke-width="0"/>
<g id="SVGRepo_tracerCarrier" stroke-linecap="round" stroke-linejoin="round"/>
<g id="SVGRepo_iconCarrier"> <g id="XMLID_212_"> <g> <g> <path d="M265.79,0H112.151c-4.028,0-7.63,1.853-10.002,4.75c2.605,2.296,4.846,4.99,6.657,7.972h156.985 c0.112,0,0.204,0.092,0.204,0.205v140.806c0,0.112-0.092,0.205-0.204,0.205H120.192v12.722H265.79 c7.127,0,12.927-5.799,12.927-12.927V12.927C278.717,5.799,272.918,0,265.79,0z"/> <path d="M133.684,138.25l36.08-27.141c5.077-3.819,6.131-10.994,2.409-16.114c1.851-7.6,6.62-27.18,8.396-34.476l27.451,6.685 c1.223,0.298,2.456-0.452,2.754-1.675l2.985-12.258c0.298-1.223-0.452-2.456-1.675-2.754l-71.59-17.435 c-1.223-0.298-2.456,0.452-2.754,1.675l-2.985,12.258c-0.298,1.223,0.452,2.456,1.675,2.754l27.451,6.685 c-0.383,1.573-6.569,26.971-8.943,36.72l-16.737,12.591l-0.081-16.188c-0.076-15.081-12.404-27.365-27.503-27.365 c-7.162,0-56.366,0-62.393,0C26.128,62.224,20.78,77.994,20.722,89.577l-0.429,85.382c-0.033,6.419,5.145,11.648,11.563,11.681 c0.02,0,0.04,0,0.06,0c6.348,0,11.588-5.141,11.621-11.564l0.429-85.383c0.007-1.238,1.013-2.237,2.25-2.233 c1.237,0.003,2.238,1.008,2.238,2.244c0.001,27.769,0.005,182.647,0.005,195.359c0,7.703,6.243,13.946,13.946,13.946 c7.691,0,13.946-6.228,13.946-13.946V173.588h6.022v111.475c0,7.68,6.218,13.946,13.946,13.946 c7.688,0,13.946-6.227,13.946-13.946c0-182.046-0.247-82.185-0.253-195.357c0-1.341,1.085-2.428,2.425-2.432 c1.341-0.004,2.432,1.078,2.439,2.419c0,0.001,0,0.001,0,0.001l0.198,39.327C115.124,138.594,126.093,143.961,133.684,138.25z"/> <polygon points="231.512,23.778 229.738,31.243 222.272,33.017 229.738,34.791 231.512,42.256 233.286,34.791 240.751,33.017 233.286,31.243 "/> <polygon points="245.506,58.685 246.791,53.276 252.201,51.99 246.791,50.705 245.506,45.295 244.221,50.705 238.811,51.99 244.221,53.276 "/> <polygon points="235.328,69.128 233.799,75.565 227.361,77.095 233.799,78.624 235.328,85.062 236.858,78.624 243.296,77.095 236.858,75.565 "/> <path d="M79.52,54.535c13.22,0,24.087-10.717,24.087-24.087c0-13.303-10.784-24.087-24.087-24.087 c-13.303,0-24.087,10.784-24.087,24.087C55.433,43.857,66.344,54.535,79.52,54.535z"/> </g> </g> </g> </g>
</svg>