<?xml version="1.0" encoding="utf-8"?>

<!DOCTYPE svg PUBLIC "-//W3C//DTD SVG 1.1//EN" "http://www.w3.org/Graphics/SVG/1.1/DTD/svg11.dtd">
<!-- Uploaded to: SVG Repo, www.svgrepo.com, Generator: SVG Repo Mixer Tools -->
<svg height="800px" width="800px" version="1.1" id="_x32_" xmlns="http://www.w3.org/2000/svg" xmlns:xlink="http://www.w3.org/1999/xlink" 
	 viewBox="0 0 512 512"  xml:space="preserve">
<style type="text/css">
	.st0{fill:#214A2B;}
</style>
<g>
	<path class="st0" d="M393.811,370.922c-9.21-22.546-21.95-43.573-37.49-61.186c17.264-21.754,27.537-49.298,27.61-79.309
		c-0.073-21.608-5.435-41.943-14.9-59.753V46.337c0-7.974-2.088-15.722-6.701-21.826c-4.547-6.183-11.255-10.287-18.625-12.368
		c-9.167-2.612-21.608-5.668-36.435-8.047C292.37,1.71,275.091,0,256.015,0c-38.145,0-69.284,6.853-87.763,12.143
		c-7.298,2.081-14.006,6.184-18.545,12.368c-4.62,6.105-6.708,13.853-6.708,21.826v124.191c-9.538,17.883-14.9,38.218-14.9,59.899
		c0,30.026,10.28,57.577,27.559,79.338c-15.533,17.607-28.266,38.626-37.468,61.157c-10.389,25.478-16.297,52.892-16.312,79.615
		c-0.014,5.638,1.681,11.073,4.424,15.752c4.845,8.221,12.47,14.522,21.848,19.993c14.121,8.148,32.688,14.405,54.486,18.836
		C204.418,509.519,229.401,512,256,512c40.561-0.022,77.272-5.711,104.795-15.366c13.765-4.867,25.29-10.666,34.071-17.934
		c4.372-3.646,8.097-7.705,10.84-12.412c2.736-4.678,4.43-10.113,4.416-15.752C410.116,423.815,404.2,396.401,393.811,370.922z
		 M165.334,92.747c0.073,0,0.153,0.08,0.226,0.08c2.757,0.895,6.184,1.863,10.134,2.757c7.821,1.782,17.578,3.347,27.56,4.612
		c19.97,2.539,41.426,3.951,52.746,3.951c14.9,0,47.087-2.386,70.775-6.7c7.902-1.346,14.828-2.983,19.673-4.62
		c0.072,0,0.146-0.08,0.218-0.08v23.245c-1.71,0.524-3.572,0.968-5.435,1.346c-8.942,2.008-19.149,3.644-29.655,4.991
		c-21.004,2.678-42.685,4.096-55.577,4.169c-16.835-0.073-49.094-2.459-74.718-6.999c-5.74-1.048-11.102-2.16-15.948-3.507V92.747z
		 M256,474.502c-9.978,0-18.065-8.083-18.065-18.065c0-9.982,8.087-18.065,18.065-18.065c9.979,0,18.065,8.083,18.065,18.065
		C274.065,466.419,265.979,474.502,256,474.502z M256,414.902c-9.978,0-18.065-8.083-18.065-18.065
		c0-9.982,8.087-18.065,18.065-18.065c9.979,0,18.065,8.082,18.065,18.065C274.065,406.819,265.979,414.902,256,414.902z
		 M256.015,335.993c-29.203,0-55.504-11.772-74.645-30.921c-19.077-19.141-30.921-45.442-30.921-74.645
		c0-15.497,3.354-30.171,9.312-43.434c6.184,2.088,13.481,3.652,21.528,5.143c25.631,4.54,57.818,6.926,74.726,6.926
		c12.892,0,34.565-1.418,55.577-4.096c10.506-1.346,20.713-2.983,29.654-4.991c3.943-0.822,7.596-1.79,10.949-2.983
		c6.032,13.263,9.312,27.938,9.386,43.434c-0.073,29.203-11.844,55.504-30.913,74.645
		C311.519,324.221,285.218,335.993,256.015,335.993z"/>
</g>
</svg>