<!DOCTYPE svg PUBLIC "-//W3C//DTD SVG 1.1//EN" "http://www.w3.org/Graphics/SVG/1.1/DTD/svg11.dtd">
<!-- Uploaded to: SVG Repo, www.svgrepo.com, Transformed by: SVG Repo Mixer Tools -->
<svg width="800px" height="800px" viewBox="0 -3 16 16" id="meteor-icon-kit__regular-quote" fill="none" xmlns="http://www.w3.org/2000/svg">
<g id="SVGRepo_bgCarrier" stroke-width="0"/>
<g id="SVGRepo_tracerCarrier" stroke-linecap="round" stroke-linejoin="round"/>
<g id="SVGRepo_iconCarrier">
<path fill-rule="evenodd" clip-rule="evenodd" d="M16 2V7C16 8.6569 14.6569 10 13 10H12C11.4477 10 11 9.5523 11 9C11 8.4477 11.4477 8 12 8H13C13.5523 8 14 7.5523 14 7H11C9.8954 7 9 6.1046 9 5V2C9 0.89543 9.8954 0 11 0H14C15.1046 0 16 0.89543 16 2zM7 2V7C7 8.6569 5.65685 10 4 10H3C2.44772 10 2 9.5523 2 9C2 8.4477 2.44772 8 3 8H4C4.55228 8 5 7.5523 5 7H2C0.89543 7 0 6.1046 0 5V2C0 0.89543 0.89543 0 2 0H5C6.1046 0 7 0.89543 7 2zM5 5V2H2V5H5zM11 2V5H14V2H11z" fill="#f99624"/>
</g>
</svg>