<svg width="801" height="179" viewBox="0 0 801 179" fill="none" xmlns="http://www.w3.org/2000/svg">
<path d="M103.304 25.9211C106.646 24.7422 108.741 24.619 110.786 24.9163C111.826 25.0676 112.861 25.3291 114.067 25.635C115.267 25.9396 116.622 26.2842 118.27 26.5872C119.197 26.7577 120.208 26.7889 121.236 26.7776C121.751 26.7719 122.279 26.7553 122.805 26.7395C123.333 26.7236 123.863 26.7085 124.391 26.7043C126.518 26.6877 128.549 26.8565 130.226 27.8323L130.241 27.8411L130.255 27.8479C131.631 28.534 132.358 29.2065 132.872 29.9534C133.276 30.54 133.551 31.1693 133.895 31.9475L134.269 32.7795C134.556 33.3999 134.689 34.1921 134.723 35.0833C134.757 35.97 134.693 36.9173 134.61 37.8313C134.528 38.7299 134.425 39.6206 134.393 40.3362C134.377 40.6968 134.378 41.0372 134.412 41.3313C134.446 41.6132 134.516 41.9184 134.69 42.1565C135.333 43.0379 135.879 43.6582 136.35 44.1692C136.829 44.688 137.199 45.061 137.536 45.4895C138.181 46.3078 138.701 47.3281 139.296 49.8157L139.31 49.8733L139.337 49.926C139.627 50.4987 139.76 51.2066 139.818 51.9895C139.876 52.7795 139.856 53.5713 139.87 54.3547L139.873 54.5256L139.98 54.6594C143.443 58.971 143.921 62.3581 144.774 68.0364C144.841 68.484 144.8 69.1536 144.771 69.9231C144.743 70.6382 144.724 71.4581 144.894 72.053L144.95 72.2463L145.123 72.3479C146.93 73.4001 148.545 74.0795 149.968 74.6604C151.403 75.246 152.608 75.7188 153.663 76.3674C155.677 77.605 157.196 79.5177 158.3 84.3196C156.559 86.7589 155.502 88.4759 154.063 91.0266C147.128 86.4333 137.698 82.6506 129.389 85.7493L129.382 85.7522L129.375 85.7542C127.275 86.6087 125.881 87.37 124.658 88.3987C123.442 89.4206 122.418 90.6885 121.037 92.51L121.015 92.5403L120.996 92.5735C117.999 98.0951 117.225 103.38 118.578 108.14C119.929 112.896 123.38 117.05 128.682 120.356C131.283 121.977 133.869 122.31 136.438 122.123C138.966 121.94 141.562 121.239 144.077 120.783C144.992 120.617 145.924 120.197 146.815 119.69C147.708 119.181 148.59 118.565 149.403 117.988C150.226 117.403 150.968 116.865 151.613 116.479C151.933 116.287 152.215 116.143 152.455 116.052C152.62 115.99 152.749 115.959 152.849 115.948C153.64 116.606 154.363 117.725 155.089 118.99C155.829 120.276 156.573 121.717 157.354 122.707C157.697 123.143 158.124 123.552 158.544 123.952C158.928 124.318 159.312 124.683 159.673 125.085C159.617 126.181 159.065 127.076 158.158 127.859C157.188 128.695 155.844 129.373 154.367 129.981C152.868 130.597 151.359 131.095 149.941 131.648C148.579 132.178 147.319 132.753 146.561 133.487L146.105 133.928L146.641 134.268C147.848 135.034 148.731 135.91 149.562 136.811C150.379 137.697 151.175 138.645 152.156 139.477V139.478C154.066 141.204 155.188 142.678 155.866 144.344C156.547 146.019 156.798 147.932 156.891 150.574C157.091 156.259 157.45 163.224 156.97 168.871C154.585 168.88 152.39 168.888 150.011 168.709L149.994 168.708H149.976L147.263 168.695H147.244L147.223 168.697C143.266 168.996 136.539 168.719 132.324 168.746C122.429 168.81 112.389 168.696 102.502 168.344H102.482L58.349 168.607H58.348C54.32 168.637 48.8787 168.928 43.472 168.865C38.071 168.801 32.8571 168.381 29.3802 167.031L29.3529 167.021C26.9177 166.234 24.1618 165.306 22.0521 163.957L21.6332 163.678L19.6302 162.312C17.7817 161.032 16.3604 159.976 15.0482 158.82C13.3032 157.282 11.7396 155.557 9.62927 152.874L9.61072 152.85L9.58923 152.829L8.97595 152.206C6.00032 149.135 4.39397 146.632 3.46814 143.868C2.47355 140.9 2.24989 137.595 2.02869 132.868C1.31935 117.71 8.32414 105.317 18.7152 94.4514L18.725 94.4407L18.7347 94.429C20.5861 92.2482 22.2386 90.7777 24.1088 89.7229C25.9802 88.6675 28.1009 88.0103 30.9154 87.4983L30.9496 87.4924L30.9818 87.4817C32.609 86.9484 34.0049 86.656 35.4135 86.4026C36.8168 86.1501 38.2589 85.9323 39.9271 85.553C40.5373 85.4142 40.9016 85.1128 41.1566 84.6917C41.2721 84.5008 41.3623 84.291 41.4437 84.0911C41.5289 83.8819 41.6069 83.679 41.7094 83.4524L41.724 83.4202L41.7338 83.387C43.3276 77.9352 46.3713 70.7226 50.1752 64.0081C53.9851 57.2829 58.5241 51.1161 63.0863 47.7024C64.2309 46.8459 65.9769 46.1881 67.7787 45.4895C68.6637 45.1464 69.555 44.7954 70.3529 44.4114C71.1477 44.0288 71.8804 43.5991 72.4369 43.0881C74.3796 41.3043 75.4911 39.4414 76.6683 37.7434C77.8475 36.0425 79.1242 34.4511 81.4359 33.054L81.4476 33.0461C84.7792 30.9027 87.1822 29.8231 89.7064 29.3625C92.2435 28.8996 94.943 29.0535 98.8998 29.4534L99.1244 29.4768L99.2904 29.3215C99.6642 28.9729 100.002 28.6228 100.321 28.2893C100.642 27.9529 100.94 27.6371 101.248 27.3401C101.859 26.7525 102.485 26.2615 103.304 25.9211Z" fill="#FCFCFC" stroke="#96C4D9"/>
<path d="M55.309 83.7004C58.5831 83.9466 61.8616 84.2863 65.1386 84.3757C66.7486 84.4196 69.6208 82.4081 70.6344 83.2248C70.9808 85.0352 69.4575 87.7158 68.2016 88.979L69.4195 89.6425C71.0696 92.1342 72.733 94.9843 70.3991 97.6772L71.8426 98.1927C80.9827 108.319 69.6596 112.714 70.954 117.518C72.0775 118.088 72.8115 119.13 73.6155 120.104C73.9556 121.343 75.2887 123.284 76.2582 123.985L78.5179 124.842C80.4969 125.991 83.7095 125.717 86.0689 125.692C87.4978 125.19 89.9589 124.083 91.274 124.453C91.6708 125.411 90.2409 129.671 91.0998 133.455L92.4452 131.424C93.5405 130.025 97.9835 124.052 99.4039 124.289C99.447 124.954 99.4574 125.629 99.6738 126.258C98.5257 127.362 97.9155 126.812 97.005 127.664C93.4938 130.949 92.0473 135.544 91.9125 140.196C91.8018 144.018 93.1689 150.221 94.8817 153.464C96.5253 154.328 96.5896 155.903 97.6034 156.104C97.9408 155.176 98.2126 154.567 98.6318 153.688L99.4588 153.744C105.461 148.377 100.153 147.125 103.165 141.928C103.434 141.61 103.437 140.745 103.491 140.248C106.051 139.58 107.387 138.094 108.906 138.089C109.035 139.102 108.879 139.431 108.555 140.369C108.859 141.894 108.698 142.888 110.342 143.553C111.116 144.659 113.845 148.804 115.012 148.249C120.965 145.419 117.423 151.577 122.924 151.209C123.254 151.681 123.239 151.853 123.686 151.963C118.354 155.526 132.463 163.122 135.741 164.256L137.184 164.664C140.153 164.963 152.45 166.377 154.308 165.258L154.952 165.895L154.61 166.631C156.119 167.117 156.016 166.83 156.84 167.936C155.814 169.37 151.85 168.726 149.974 169.208L147.261 169.195C143.284 169.496 136.494 169.219 132.327 169.246C122.426 169.31 112.38 169.196 102.485 168.844L58.3516 169.107C50.3866 169.166 36.3399 170.27 29.1994 167.497C26.6139 166.662 23.5785 165.641 21.3533 164.092C15.573 160.187 13.4774 158.575 9.23663 153.183C2.42573 146.394 1.97011 142.321 1.52881 132.892C0.810589 117.545 7.91061 105.026 18.3536 94.1057C22.1034 89.6885 25.1376 88.0415 30.826 87.0067C34.1426 85.9198 36.5087 85.8176 39.816 85.0657C40.7651 84.8499 40.8228 84.1988 41.2536 83.2462L42.1394 83.2647C41.9757 84.4209 41.8585 84.1725 42.2203 85.1332C44.1879 85.8835 50.494 83.1959 53.6363 82.5421L54.9528 82.9021L55.309 83.7004Z" fill="#1A3F6C"/>
<path d="M55.309 83.7004C58.5831 83.9466 61.8616 84.2863 65.1386 84.3757C66.7486 84.4196 69.6208 82.4081 70.6344 83.2248C70.9808 85.0352 69.4575 87.7158 68.2016 88.979L69.4195 89.6425C71.0696 92.1342 72.733 94.9843 70.3991 97.6772L71.8426 98.1927C80.9827 108.319 69.6596 112.714 70.954 117.518L70.7444 117.713C69.8693 117.395 68.9597 117.003 68.0941 116.648C65.6855 120.845 64.6685 121.277 59.8179 121.868L61.2659 122.145L61.3142 122.58C59.9421 123.054 59.6127 123.178 58.1678 123.069C57.1852 122.286 56.2184 121.488 55.2481 120.689C55.1727 120.467 54.4368 119.361 54.2704 119.078C53.0608 117.017 52.6163 114.808 52.1171 112.501C50.3507 114.476 49.4732 115.237 46.8929 115.872C43.7954 116.164 42.7498 115.975 39.8918 115.097C37.5076 113.508 36.6178 112.44 34.9542 110.237C30.2514 112.965 30.3514 115.019 23.7229 117.86C21.2044 118.122 14.6249 118.115 13.1219 119.529L13.1149 120.226C14.1588 120.274 14.183 120.083 15.1889 119.594L15.4301 119.974C15.0888 121.49 14.2239 124.488 14.1965 125.824C15.5231 127.325 14.8884 133.665 14.7834 135.945L15.019 140.785C16.3745 147.588 16.8403 150.417 20.5753 156.364L19.9441 156.893C19.2593 156.603 18.7136 156.346 18.0524 156.006C19.7796 159.048 22.8718 161.033 22.8731 163.406C22.2594 163.755 22.0335 163.897 21.3533 164.092C15.573 160.187 13.4774 158.575 9.23663 153.183C2.42573 146.394 1.97011 142.321 1.52881 132.892C0.810589 117.545 7.91061 105.026 18.3536 94.1057C22.1034 89.6885 25.1376 88.0415 30.826 87.0067C34.1426 85.9198 36.5087 85.8176 39.816 85.0657C40.7651 84.8499 40.8228 84.1988 41.2536 83.2462L42.1394 83.2647C41.9757 84.4209 41.8585 84.1725 42.2203 85.1332C44.1879 85.8835 50.494 83.1959 53.6363 82.5421L54.9528 82.9021L55.309 83.7004Z" fill="#FCFCFC"/>
<path d="M53.6363 82.5421L54.9528 82.9021L55.309 83.7004C51.5207 84.1824 41.8546 86.5123 39.9633 90.2178L41.0665 91.2008L41.0183 91.8057C39.3191 92.3094 32.6944 91.72 30.647 91.5062L29.3779 90.4094C4.69274 102.166 -3.5991 129.271 9.23663 153.183C2.42573 146.394 1.97011 142.321 1.52881 132.892C0.810589 117.545 7.91061 105.026 18.3536 94.1057C22.1034 89.6885 25.1376 88.0415 30.826 87.0067C34.1426 85.9198 36.5087 85.8176 39.816 85.0657C40.7651 84.8499 40.8228 84.1988 41.2536 83.2462L42.1394 83.2647C41.9757 84.4209 41.8585 84.1725 42.2203 85.1332C44.1879 85.8835 50.494 83.1959 53.6363 82.5421Z" fill="#3A3247"/>
<path d="M29.3779 90.4094C30.8916 89.4663 39.0356 86.3319 40.2369 88.1017L40.1772 87.6744L39.9852 88.3632L39.8778 87.601L39.6761 88.6034C37.7464 89.8457 36.7553 90.1584 34.6282 90.9218C36.7184 91.333 38.4984 91.9938 39.9633 90.2178L41.0665 91.2008L41.0183 91.8057C39.3191 92.3094 32.6944 91.72 30.647 91.5062L29.3779 90.4094Z" fill="#9DA6B9"/>
<path d="M18.3536 94.1057C22.1034 89.6885 25.1376 88.0415 30.826 87.0067L30.9363 87.4478C28.9266 88.6428 20.0325 94.0719 18.3536 94.1057Z" fill="#817A87"/>
<path d="M44.0606 104.741C43.5803 103.578 42.8616 102.276 43.21 101.113C44.455 100.421 44.8268 101.173 45.5302 102.315C49.8128 109.269 52.0525 108.461 59.2877 105.269C56.6106 107.938 53.8893 110.243 53.8426 114.316C53.801 117.95 56.8407 120.472 59.8179 121.868L61.2659 122.145L61.3142 122.58C59.9421 123.054 59.6127 123.178 58.1678 123.069C57.1852 122.286 56.2184 121.488 55.2481 120.689C55.1727 120.467 54.4368 119.361 54.2704 119.078C53.0608 117.017 52.6163 114.808 52.1171 112.501C50.3507 114.476 49.4732 115.237 46.8929 115.872C45.7859 112.386 44.4345 108.359 44.0606 104.741Z" fill="#1E1D27"/>
<path d="M44.0605 104.741C47.5852 107.613 48.7446 108.377 53.2699 109.323C53.1012 109.783 52.1814 112.183 52.117 112.501C50.3506 114.476 49.4731 115.237 46.8928 115.872C45.7858 112.386 44.4344 108.359 44.0605 104.741Z" fill="#9DA6B9"/>
<path d="M68.0941 116.648C66.4968 115.425 61.9131 114.071 62.1653 111.584C66.8357 116.025 69.0995 117.003 72.5678 110.045C73.6081 107.958 73.6035 104.187 72.5946 102.096C71.9677 100.797 70.2092 99.752 69.529 98.1655L70.3991 97.6772L71.8426 98.1927C80.9827 108.319 69.6596 112.714 70.954 117.518L70.7444 117.713C69.8693 117.395 68.9597 117.003 68.0941 116.648Z" fill="#1E1D27"/>
<path d="M23.7229 117.86C24.4738 112.049 29.2966 109.024 33.9468 106.005C33.5167 107.276 32.8972 108.153 32.7951 109.546C33.6723 110.379 33.5145 110.138 34.9542 110.237C30.2514 112.965 30.3514 115.019 23.7229 117.86Z" fill="url(#paint0_linear_35_103)"/>
<path d="M13.1949 142.383L13.4118 141.241L14.1442 140.772L14.2602 141.246L13.4542 141.23C13.6802 140.671 13.714 140.603 14.2105 140.243L14.5804 141.515L15.0189 140.785C16.3744 147.588 16.8402 150.417 20.5752 156.364L19.944 156.893C19.2592 156.603 18.7135 156.346 18.0523 156.006C15.1189 151.768 13.9107 147.393 13.1949 142.383Z" fill="#2A3665"/>
<path d="M14.1965 125.824C15.5231 127.325 14.8884 133.665 14.7834 135.945L15.019 140.785L14.5805 141.515L14.2106 140.243C13.7141 140.603 13.6803 140.671 13.4543 141.23L14.2603 141.246L14.1443 140.772L13.4119 141.241L13.195 142.383C12.6329 136.514 13.1623 131.621 14.1965 125.824Z" fill="#1E1D27"/>
<path d="M69.4194 89.6425C67.7647 90.0859 66.3939 90.4737 64.7209 90.1128C65.3603 89.4236 67.1154 89.2277 68.2015 88.979L69.4194 89.6425Z" fill="#9DA6B9"/>
<path d="M68.0941 116.648C68.9597 117.003 69.8693 117.395 70.7444 117.713L70.954 117.518C72.0775 118.088 72.8115 119.13 73.6155 120.104C73.9556 121.343 75.2887 123.284 76.2582 123.985L78.5179 124.842C80.4969 125.991 83.7095 125.717 86.0689 125.692C87.4978 125.19 89.9589 124.083 91.274 124.453C91.6708 125.411 90.2409 129.671 91.0998 133.455C90.3984 144.196 90.1479 150.918 97.6505 160.321C98.7371 161.683 100.098 162.761 101.144 164.216L100.831 164.768L99.5034 164.929C98.0201 164.931 95.3186 165.045 93.9936 164.652L92.4632 164.565C91.8124 164.685 89.3701 165.155 88.7936 165.145C86.1112 164.197 80.2 161.085 77.5997 159.712C76.6888 159.52 76.2026 159.274 75.3716 158.899C71.6465 157.267 68.6712 155.527 65.3797 153.17C64.8863 153.919 65.1237 154.953 65.2154 155.881C64.4992 156.868 64.8656 156.576 63.6924 157.028C59.8885 156.485 56.5848 147.576 55.9071 144.089C55.1789 142.194 54.5595 132.189 54.3015 129.266C53.6896 126.485 56.3985 124.926 58.2825 123.413L58.1678 123.069C59.6127 123.178 59.9421 123.054 61.3142 122.58L61.2659 122.145L59.8179 121.868C64.6685 121.277 65.6855 120.845 68.0941 116.648Z" fill="#96C4D9"/>
<path d="M68.0941 116.648C68.9597 117.003 69.8693 117.395 70.7444 117.713L70.954 117.518C72.0775 118.088 72.8115 119.13 73.6155 120.104C73.9556 121.343 75.2887 123.284 76.2582 123.985C74.0421 127.372 72.0764 129.964 69.8866 133.131C69.8218 134.185 69.595 138.889 69.3607 139.592C68.7123 138.541 69.5826 134.432 68.4743 132.646L67.9919 132.985C67.2312 134.783 67.3477 137.857 67.209 140.045C66.9839 138.886 66.9832 135.666 66.9501 134.344C65.4932 136.048 64.6301 137.336 63.3876 139.19L63.243 141.221C63.1266 144.159 63.0032 146.176 62.5798 149.077C63.2465 149.973 65.065 152.26 65.3797 153.17C64.8863 153.919 65.1237 154.953 65.2154 155.881C64.4992 156.868 64.8656 156.576 63.6924 157.028C59.8885 156.485 56.5848 147.576 55.9071 144.089C55.1789 142.194 54.5595 132.189 54.3015 129.266C53.6896 126.485 56.3985 124.926 58.2825 123.413L58.1678 123.069C59.6127 123.178 59.9421 123.054 61.3142 122.58L61.2659 122.145L59.8179 121.868C64.6685 121.277 65.6855 120.845 68.0941 116.648Z" fill="#1A3F6C"/>
<path d="M60.2982 127.437C61.9283 127.557 64.4895 127.123 65.7132 128.478C65.1127 132.68 62.0207 130.531 63.3876 139.19L63.243 141.221C63.1266 144.159 63.0032 146.176 62.5798 149.077C63.2465 149.973 65.065 152.26 65.3797 153.17C64.8863 153.919 65.1237 154.953 65.2154 155.881C64.4992 156.868 64.8656 156.576 63.6924 157.028C59.8885 156.485 56.5848 147.576 55.9071 144.089C56.3313 140.789 55.092 133.395 57.0172 130.007C57.0249 129.994 59.759 127.959 60.2982 127.437Z" fill="#2A3665"/>
<path d="M66.9501 134.344C66.9832 135.666 66.9839 138.886 67.209 140.045C67.8688 144.166 69.6639 149.722 72.3886 152.948C72.0801 153.715 71.7442 154.619 71.4076 155.359C72.5187 156.24 74.6802 157.79 75.3716 158.899C71.6465 157.267 68.6712 155.527 65.3797 153.17C65.065 152.26 63.2465 149.973 62.5798 149.077C63.0032 146.176 63.1266 144.159 63.243 141.221L63.3876 139.19C64.6301 137.336 65.4932 136.048 66.9501 134.344Z" fill="#96C4D9"/>
<path d="M63.243 141.221L63.4503 147.01C65.9362 150.995 67.7258 152.325 71.4076 155.359C72.5187 156.24 74.6802 157.79 75.3716 158.899C71.6465 157.267 68.6712 155.527 65.3797 153.17C65.065 152.26 63.2465 149.973 62.5798 149.077C63.0032 146.176 63.1266 144.159 63.243 141.221Z" fill="#1A3F6C"/>
<path d="M67.209 140.045C67.3477 137.857 67.2312 134.783 67.9919 132.985L68.4743 132.646C69.5826 134.432 68.7123 138.541 69.3607 139.592C70.3455 145.895 77.3402 159.448 84.0087 160.944C86.5837 162.438 89.6304 163.645 92.4632 164.565C91.8124 164.685 89.3701 165.155 88.7936 165.145C86.1112 164.197 80.2 161.085 77.5997 159.712C76.6888 159.52 76.2026 159.274 75.3716 158.899C74.6802 157.79 72.5187 156.24 71.4076 155.359C71.7442 154.619 72.0801 153.715 72.3886 152.948C69.6639 149.722 67.8688 144.166 67.209 140.045Z" fill="#2A3665"/>
<path d="M72.3886 152.948C74.1 155.329 75.7598 157.426 77.5997 159.712C76.6888 159.52 76.2026 159.274 75.3716 158.899C74.6802 157.79 72.5187 156.24 71.4076 155.359C71.7442 154.619 72.0801 153.715 72.3886 152.948Z" fill="#198AC4"/>
<path d="M87.8885 155.138C83.8001 146.848 81.7519 135.318 85.3912 126.53C84.9603 139.31 83.9846 149.305 93.2691 160.435C94.4853 161.893 97.5875 164.536 99.5034 164.929C98.0201 164.931 95.3186 165.045 93.9936 164.652L92.4632 164.565C89.6304 163.645 86.5837 162.438 84.0087 160.944C85.0755 161.077 85.259 161.298 86.0258 160.797L86.778 161.146C86.3422 160.733 86.1986 160.604 85.8891 160.084L85.8237 159.973L87.1589 160.103C87.935 157.769 84.9241 157.47 87.8885 155.138Z" fill="#096CAF"/>
<path d="M87.8885 155.138C88.9388 156.85 94.7463 163.816 94.7877 164.398L93.9936 164.652L92.4632 164.565C89.6304 163.645 86.5837 162.438 84.0087 160.944C85.0755 161.077 85.259 161.298 86.0258 160.797L86.778 161.146C86.3422 160.733 86.1986 160.604 85.8891 160.084L85.8237 159.973L87.1589 160.103C87.935 157.769 84.9241 157.47 87.8885 155.138Z" fill="#198AC4"/>
<path d="M78.5179 124.842C80.4969 125.991 83.7095 125.717 86.0689 125.692C84.6812 125.966 81.7992 125.924 80.28 125.946C73.7798 135.229 79.7225 146.117 79.9806 155.076C73.7117 144.36 74.8965 135.946 78.5179 124.842Z" fill="#096CAF"/>
<path d="M85.8237 159.973C83.4769 155.035 79.7278 145.701 80.2254 140.154L80.4775 139.885C81.8809 141.367 84.4349 155.72 87.1589 160.103L85.8237 159.973Z" fill="#096CAF"/>
<path d="M46.8929 115.872C49.4732 115.237 50.3507 114.476 52.1171 112.501C52.6163 114.808 53.0608 117.017 54.2704 119.078C54.4368 119.361 55.1727 120.467 55.2481 120.689C56.2184 121.488 57.1852 122.286 58.1678 123.069L58.2825 123.413C56.3985 124.926 53.6896 126.485 54.3015 129.266C54.5595 132.189 55.1789 142.194 55.9071 144.089C56.5848 147.576 59.8885 156.485 63.6924 157.028C64.8656 156.576 64.4992 156.868 65.2154 155.881C65.1237 154.953 64.8863 153.919 65.3797 153.17C68.6712 155.527 71.6465 157.267 75.3716 158.899C76.2026 159.274 76.6888 159.52 77.5997 159.712C80.2 161.085 86.1112 164.197 88.7936 165.145C88.6741 165.174 88.1324 165.293 88.0193 165.291C79.264 165.145 67.8521 166.198 59.6116 163.28C58.3384 162.83 55.6097 160.691 54.5828 159.91C55.4106 161.209 56.1394 162.207 57.0715 163.435L56.8816 163.671C53.7316 163.052 50.5146 162.321 47.8544 160.539C46.6715 160.327 46.3099 160.281 45.2253 159.716C45.3457 158.615 42.2004 153.465 41.4502 152.132C39.904 146.545 39.8106 145.115 39.9969 139.278C39.163 136.501 38.9699 132.535 39.3324 129.65C40.2411 128.528 40.598 125.317 41.3625 123.868C42.1363 122.402 43.4269 120.434 42.279 118.904L41.7236 119.08C39.6681 120.867 38.7988 124.624 37.6761 127.276C37.1409 127.361 36.7919 127.906 36.429 128.336C36.0306 127.424 39.666 118.35 39.8918 115.097C42.7498 115.975 43.7954 116.164 46.8929 115.872Z" fill="#96C4D9"/>
<path d="M46.8929 115.872C49.4732 115.237 50.3507 114.476 52.1171 112.501C52.6163 114.808 53.0608 117.017 54.2704 119.078C54.4368 119.361 55.1727 120.467 55.2481 120.689C56.2184 121.488 57.1852 122.286 58.1678 123.069L58.2825 123.413C56.3985 124.926 53.6896 126.485 54.3015 129.266C54.1366 128.917 53.7289 128.383 53.4924 128.05L52.5587 128.15C49.7832 140.837 50.7629 145.983 56.0486 157.41C51.6468 152.509 52.5461 153.185 49.7354 148.045C47.386 143.749 46.6283 132.225 44.2693 131.009C40.2728 131.977 47.4397 149.601 47.0371 152.193C46.2618 151.936 46.2342 151.627 45.6876 150.883C44.4562 144.904 41.8227 146.492 39.9969 139.278C39.163 136.501 38.9699 132.535 39.3324 129.65C40.2411 128.528 40.598 125.317 41.3625 123.868C42.1363 122.402 43.4269 120.434 42.279 118.904L41.7236 119.08C39.6681 120.867 38.7988 124.624 37.6761 127.276C37.1409 127.361 36.7919 127.906 36.429 128.336C36.0306 127.424 39.666 118.35 39.8918 115.097C42.7498 115.975 43.7954 116.164 46.8929 115.872Z" fill="url(#paint1_linear_35_103)"/>
<path d="M52.5587 128.15C52.9777 126.386 53.907 121.768 55.2481 120.689C56.2184 121.488 57.1852 122.286 58.1678 123.069L58.2825 123.413C56.3985 124.926 53.6896 126.485 54.3015 129.266C54.1366 128.917 53.7289 128.383 53.4924 128.05L52.5587 128.15Z" fill="#1A5190"/>
<path d="M39.9969 139.278C41.8227 146.492 44.4562 144.904 45.6876 150.883C44.1485 148.691 43.1057 146.222 41.6093 144.237C42.8985 153.282 43.8707 153.113 47.8544 160.539C46.6715 160.327 46.3099 160.281 45.2253 159.716C45.3457 158.615 42.2004 153.465 41.4502 152.132C39.904 146.545 39.8106 145.115 39.9969 139.278Z" fill="#096CAF"/>
<path d="M23.7229 117.86C30.3514 115.019 30.2514 112.965 34.9542 110.237C36.6178 112.44 37.5076 113.508 39.8918 115.097C39.666 118.35 36.0306 127.424 36.429 128.336C36.7919 127.906 37.1409 127.361 37.6761 127.276C38.7988 124.624 39.6681 120.867 41.7236 119.08L42.279 118.904C43.4269 120.434 42.1363 122.402 41.3625 123.868C40.598 125.317 40.2411 128.528 39.3324 129.65C38.9699 132.535 39.163 136.501 39.9969 139.278C39.8106 145.115 39.904 146.545 41.4502 152.132C40.7574 152.137 40.2623 152.101 39.601 152.321C38.924 151.698 38.2507 151.068 37.552 150.469C36.9607 151.726 37.7996 152.728 37.7909 153.9C35.8105 152.337 34.2022 149.589 32.8386 147.46C28.9646 143.507 31.3741 130.438 30.6802 129.409C29.8837 131.028 30.0509 142.944 30.706 145.091C30.4878 145.267 30.2988 145.42 30.1389 145.549C29.0247 143.048 29.5521 132.839 29.101 132.44C27.9057 140.154 29.0439 147.139 34.204 152.829C34.4609 153.112 36.4462 155.722 36.4922 155.881C35.9654 156.808 36.5232 158.624 36.5504 160.179L35.9866 160.572C30.661 159.753 22.6244 144.323 21.491 139.435C20.8049 136.476 18.9336 134.142 15.4914 134.69L14.7834 135.945C14.8884 133.665 15.5231 127.325 14.1965 125.824C14.2239 124.488 15.0888 121.49 15.4301 119.974L15.1889 119.594C14.183 120.083 14.1588 120.274 13.1149 120.226L13.1219 119.529C14.6249 118.115 21.2044 118.122 23.7229 117.86Z" fill="#1A5190"/>
<path d="M36.7363 129.989C37.5352 129.047 37.2555 129.085 38.3099 128.837C38.6514 129.061 39.1364 129.32 39.3324 129.65C38.9699 132.535 39.163 136.501 39.9969 139.278C39.8106 145.115 39.904 146.545 41.4502 152.132C40.7574 152.137 40.2623 152.101 39.601 152.321C38.924 151.698 38.2507 151.068 37.552 150.469C36.9607 151.726 37.7996 152.728 37.7909 153.9C35.8105 152.337 34.2022 149.589 32.8386 147.46C33.3109 146.97 33.7705 146.877 34.4158 146.662C37.2113 142.792 36.0932 135.272 36.7363 129.989Z" fill="#96C4D9"/>
<path d="M103.491 140.248C106.051 139.58 107.387 138.094 108.906 138.089C109.035 139.102 108.879 139.431 108.555 140.369C108.859 141.894 108.698 142.888 110.342 143.553C111.116 144.659 113.845 148.804 115.012 148.249C120.965 145.419 117.423 151.577 122.924 151.209C123.254 151.681 123.239 151.853 123.686 151.963C118.354 155.526 132.463 163.122 135.741 164.256C135.319 165.409 135.609 165.063 134.608 165.691C135.042 166.666 134.978 166.414 136.156 166.891C130.823 166.1 123.626 167.673 118.05 166.727C114.966 166.203 111.912 164.554 108.777 164.504L108.469 164.26L107.445 163.563C103.698 162.173 100.311 157.525 99.4587 153.744C105.461 148.377 100.153 147.125 103.165 141.928C103.434 141.61 103.437 140.745 103.491 140.248Z" fill="#2A3665"/>
<path d="M109.423 160.444C109.616 157.158 104.838 153.501 106.846 151.374C110.468 155.363 118.423 160.1 123.77 161.565C119.864 158.042 116.165 156.341 112.487 152.516L117.734 151.95C125.134 159.691 125.034 160.94 134.608 165.691C135.042 166.666 134.978 166.414 136.156 166.891C130.823 166.1 123.626 167.673 118.05 166.727C114.966 166.203 111.912 164.554 108.777 164.504L108.469 164.26C108.234 163.488 108.137 163 107.999 162.205C108.329 161.197 108.548 161.059 109.423 160.444Z" fill="#198AC4"/>
<path d="M103.422 157.37L103.399 157.291C102.607 154.551 104.67 154.945 105.628 152.961C105.786 152.634 105.306 151.47 105.93 150.353L106.61 150.659L106.846 151.374C104.838 153.501 109.616 157.158 109.423 160.444C108.548 161.059 108.329 161.197 107.999 162.205C108.137 163 108.234 163.488 108.469 164.26L107.445 163.563C107.3 162.662 104.507 159.476 103.422 157.37Z" fill="#1A5190"/>
<path d="M103.422 157.37L104.359 155.809C106.332 156.477 107.28 159.885 109.423 160.444C108.548 161.059 108.329 161.197 107.999 162.205C108.137 163 108.234 163.488 108.469 164.26L107.445 163.563C107.3 162.662 104.507 159.476 103.422 157.37Z" fill="#096CAF"/>
<path d="M108.555 140.369C108.859 141.894 108.698 142.888 110.342 143.553C109.34 145.46 112.08 146.868 110.932 149.183C108.071 148.746 108.317 142.594 108.555 140.369Z" fill="#D9DDE1"/>
<path d="M14.7834 135.945L15.4914 134.69C18.9336 134.142 20.8049 136.476 21.491 139.435C22.6244 144.323 30.661 159.753 35.9866 160.572L36.5504 160.179C36.5232 158.624 35.9654 156.808 36.4922 155.881C41.0352 160.071 47.8917 163.678 53.9227 164.994C57.3544 165.134 55.7148 166.507 59.272 166.783C55.007 166.802 31.1304 166.135 29.1994 167.497C26.6139 166.662 23.5785 165.641 21.3533 164.092C22.0335 163.897 22.2594 163.755 22.8731 163.406C22.8718 161.033 19.7796 159.048 18.0524 156.006C18.7136 156.346 19.2593 156.603 19.9441 156.893L20.5753 156.364C16.8403 150.417 16.3745 147.588 15.019 140.785L14.7834 135.945Z" fill="#96C4D9"/>
<path d="M23.4683 149.839C28.2252 156.73 30.933 164.08 39.9543 165.724C42.0261 166.102 52.2273 166.428 53.5881 165.724L53.9227 164.994C57.3544 165.134 55.7148 166.507 59.272 166.783C55.007 166.802 31.1304 166.135 29.1994 167.497C26.6139 166.662 23.5785 165.641 21.3533 164.092C22.0335 163.897 22.2594 163.755 22.8731 163.406C22.8718 161.033 19.7796 159.048 18.0524 156.006C18.7136 156.346 19.2593 156.603 19.9441 156.893L20.5753 156.364C21.8269 157.818 23.2608 159.602 24.7179 160.808C24.7875 156.302 24.5283 154.23 23.4683 149.839Z" fill="url(#paint2_linear_35_103)"/>
<path d="M59.2719 166.783C65.3651 166.926 100.648 166.306 103.058 167.688C102.971 168.531 103.108 168.239 102.485 168.844L58.3515 169.107C50.3865 169.166 36.3398 170.27 29.1993 167.497C31.1303 166.135 55.0069 166.802 59.2719 166.783Z" fill="url(#paint3_linear_35_103)"/>
<path d="M108.777 164.504C111.912 164.554 114.966 166.203 118.05 166.727C123.626 167.673 130.823 166.1 136.156 166.891L136.957 167.476L136.963 168.168C135.587 169.482 119.988 168.711 116.929 168.926C113.258 169.185 110.245 166.305 106.379 165.118L108.777 164.504Z" fill="#9DA6B9"/>
<path d="M154.61 166.631C156.119 167.117 156.016 166.83 156.84 167.936C155.814 169.37 151.85 168.726 149.974 169.208L147.261 169.195C145.043 168.794 139.903 169.385 138.766 168.412L138.775 167.559C139.85 166.602 152.289 166.674 154.61 166.631Z" fill="#9DA6B9"/>
<path d="M94.8817 153.464C96.5253 154.328 96.5896 155.903 97.6034 156.104C97.9408 155.176 98.2126 154.567 98.6318 153.688L99.4588 153.744C100.311 157.525 103.698 162.173 107.445 163.563L108.469 164.26L108.777 164.504L106.379 165.118C101.849 163.327 96.5553 158.064 94.8817 153.464Z" fill="#C8C7D0"/>
<path d="M37.7909 153.9C37.7996 152.728 36.9607 151.726 37.552 150.469C38.2507 151.068 38.924 151.698 39.601 152.321C40.2623 152.101 40.7574 152.137 41.4502 152.132C42.2004 153.465 45.3457 158.615 45.2253 159.716C41.8458 158.124 41.2012 156.575 39.2571 153.473L38.9165 153.485L38.3437 154.241L37.7909 153.9Z" fill="#198AC4"/>
<path d="M104.433 64.343C104.185 68.0768 103.84 69.6307 105.469 73.0553L106.369 72.8568L107.011 71.6245C109.292 75.2969 110.061 76.3166 113.379 79.0476C106.155 86.6976 103.763 91.1213 102.598 101.879C102.53 104.296 102.594 107.766 103.2 110.123C100.387 113.625 101.154 114.235 96.9614 118.476L97.4544 119.909C98.4592 120.468 99.2744 120.882 99.1641 122.294L100.392 123.849L99.404 124.289C97.9836 124.052 93.5406 130.025 92.4453 131.424L91.0999 133.455C90.241 129.671 91.6709 125.411 91.2741 124.453C89.959 124.083 87.4979 125.19 86.069 125.692C83.7096 125.717 80.497 125.991 78.518 124.842L76.2583 123.985C75.2888 123.284 73.9557 121.343 73.6156 120.104C72.8116 119.13 72.0776 118.088 70.9541 117.518C69.6597 112.714 80.9828 108.319 71.8427 98.1927L70.3992 97.6772C72.7331 94.9843 71.0697 92.1342 69.4196 89.6425L68.2017 88.979C69.4576 87.7158 70.9809 85.0352 70.6345 83.2248C69.6209 82.4081 66.7487 84.4196 65.1387 84.3757C61.8617 84.2863 58.5832 83.9466 55.3091 83.7004L54.9529 82.9021L53.6364 82.5421C56.8916 82.3506 59.9327 82.4683 63.1805 82.5617C65.696 71.587 69.2456 70.0187 79.3903 73.8714C80.7796 73.4091 85.1373 72.2622 85.7859 71.3868L85.5857 70.8732L83.3596 70.1175L84.8593 69.325C86.5881 69.6643 88.3431 70.0282 90.0801 70.308L89.9115 70.5367C90.4567 70.6912 90.9829 70.7787 91.4016 71.1393C93.2428 70.3423 93.7428 70.0094 95.3579 68.8038C95.7082 69.2955 96.4365 70.249 96.6372 70.7637C96.6242 70.8417 99.3869 66.8768 99.7337 66.186C101.443 65.5843 102.767 65.103 104.433 64.343Z" fill="#2A3665"/>
<path d="M73.9972 92.4592C77.7692 91.6769 79.7114 91.4378 83.537 91.9354C84.9574 92.9484 86.2864 93.8301 87.4967 95.1009L92.8383 96.2116C94.1797 95.6722 95.3796 94.925 96.6501 95.1398C97.2242 96.2646 97.2536 96.8374 97.4393 98.0524C97.4393 98.0524 98.6116 99.2649 98.71 99.3668C98.638 99.7303 98.5796 100.025 98.5347 100.252C97.2047 101.84 95.9588 102.555 94.2508 103.679C96.1457 104.068 98.1456 104.312 99.6627 105.502C100.61 103.473 100.767 103.217 102.598 101.879C102.53 104.296 102.594 107.766 103.2 110.123C100.387 113.625 101.154 114.235 96.9612 118.476L97.4542 119.909C98.459 120.468 99.2742 120.882 99.1639 122.294L100.392 123.849L99.4038 124.289C97.9834 124.052 93.5404 130.025 92.4451 131.424L91.0997 133.455C90.2408 129.671 91.6707 125.411 91.2739 124.453C89.9588 124.083 87.4977 125.19 86.0688 125.692C83.7094 125.717 80.4968 125.991 78.5178 124.842L76.2581 123.985C75.2886 123.284 73.9555 121.343 73.6154 120.104C72.8114 119.13 72.0774 118.088 70.9539 117.518C69.6595 112.714 80.9826 108.319 71.8425 98.1927C73.7035 96.26 73.7036 95.1633 73.9972 92.4592Z" fill="#FCFCFC"/>
<path d="M73.6155 120.104C75.5733 120.558 75.8663 120.197 77.7544 119.02L77.8847 118.939L78.5795 119.107C78.4224 119.812 77.3412 121.549 77.5357 121.769C78.7809 123.182 81.6618 123.951 83.2995 124.434C89.1469 126.158 90.9949 119.107 93.6543 117.933C95.3943 118.826 93.7169 121.61 97.4543 119.909C98.4591 120.468 99.2743 120.882 99.164 122.294L100.392 123.849L99.4039 124.289C97.9835 124.052 93.5405 130.025 92.4452 131.424L91.0998 133.455C90.2409 129.671 91.6708 125.411 91.274 124.453C89.9589 124.083 87.4978 125.19 86.0689 125.692C83.7095 125.717 80.4969 125.991 78.5179 124.842L76.2582 123.985C75.2887 123.284 73.9556 121.343 73.6155 120.104Z" fill="#1A5190"/>
<path d="M92.4452 131.424C92.3214 131.282 92.2724 131.21 92.1775 131.045L92.1298 130.961C91.3893 129.683 92.4263 124.228 93.3677 122.995C94.8432 122.237 97.4248 122.345 99.164 122.294L100.392 123.849L99.4039 124.289C97.9835 124.052 93.5405 130.025 92.4452 131.424Z" fill="#198AC4"/>
<path d="M99.6628 105.502C100.61 103.473 100.767 103.217 102.598 101.879C102.53 104.296 102.594 107.766 103.2 110.123C100.387 113.625 101.154 114.235 96.9613 118.476C96.1759 114.515 101.801 114.391 99.6628 105.502Z" fill="#1A5190"/>
<path d="M104.433 64.343C104.185 68.0768 103.84 69.6307 105.469 73.0553L105.336 73.7587C104.165 74.3639 102.595 74.6301 101.269 74.9907C98.5673 75.7252 96.0988 78.8269 94.5563 81.0781C91.9985 76.0696 94.9745 76.1606 96.6371 70.7637C96.6241 70.8417 99.3868 66.8768 99.7336 66.186C101.443 65.5843 102.767 65.103 104.433 64.343Z" fill="#C8C7D0"/>
<path d="M91.4015 71.1393C93.2427 70.3423 93.7427 70.0094 95.3578 68.8038C95.7081 69.2955 96.4364 70.249 96.6371 70.7637C94.9745 76.1606 91.9985 76.0696 94.5563 81.0781C93.9445 82.5627 94.0718 82.9215 92.9698 83.7841C89.5014 82.4729 90.5159 74.0444 91.4015 71.1393Z" fill="#FCFCFC"/>
<path d="M128.708 135.033C134.2 135.661 141.703 136.194 146.909 133.846C149.432 135.448 150.581 137.492 152.491 139.107C156.379 142.621 157.204 145.24 157.391 150.557C157.596 156.374 157.975 163.605 157.431 169.37C154.871 169.378 152.528 169.4 149.974 169.208C151.85 168.726 155.814 169.37 156.84 167.936C156.016 166.83 156.119 167.117 154.61 166.631L154.952 165.895L154.308 165.258C152.45 166.377 140.153 164.963 137.184 164.664L135.741 164.256C132.463 163.122 118.354 155.526 123.686 151.963C123.239 151.853 123.254 151.681 122.924 151.209C120.791 147.303 118.743 141.508 116.472 136.966C118.169 138.413 119.555 140.03 121.447 141.597C121.765 141.43 123.364 141.009 123.807 140.884C124.586 145.256 131.473 151.811 136.403 147.289C136.179 145.971 133.942 146.036 132.949 144.662C131.018 141.99 130.01 138.2 128.708 135.033Z" fill="#96C4D9"/>
<path d="M152.491 139.107C156.379 142.621 157.204 145.24 157.391 150.557C157.596 156.374 157.975 163.605 157.431 169.37C154.871 169.378 152.528 169.4 149.974 169.208C151.85 168.726 155.814 169.37 156.84 167.936C156.016 166.83 156.119 167.117 154.61 166.631L154.952 165.895L154.308 165.258C153.896 162.48 153.821 156.522 153.724 153.559C153.553 148.306 153.158 144.336 152.491 139.107Z" fill="#2A3665"/>
<path d="M116.472 136.966C118.169 138.413 119.555 140.03 121.447 141.597C121.778 143.381 122.012 145.559 122.719 147.234C125.053 152.76 135.599 160.104 136.571 163.143C130.811 159.994 126.702 153.254 123.686 151.963C123.239 151.853 123.254 151.681 122.924 151.209C120.791 147.303 118.743 141.508 116.472 136.966Z" fill="#1A5190"/>
<path d="M81.1776 32.6258C87.8948 28.3041 91.0409 28.157 98.9496 28.9562C96.972 33.8288 94.9387 37.7853 89.83 40.0049C88.0737 40.768 85.9468 41.0715 84.205 41.8283C84.8873 40.5811 85.5108 39.5301 85.9387 38.1626C85.9348 38.152 81.3745 33.585 81.2655 33.5212L81.1776 32.6258Z" fill="#C8C7D0"/>
<path d="M41.2537 83.2463C44.466 72.2589 53.4948 54.255 62.7873 47.302C65.213 45.4869 70.0856 44.5692 72.0992 42.7201C75.8799 39.2486 76.3814 35.5244 81.1777 32.6259L81.2656 33.5213C79.8509 35.031 74.3764 42.3926 73.9514 42.6364C64.008 48.3405 57.7413 55.0606 51.1718 64.5293C46.9223 70.654 45.3632 76.9209 42.1395 83.2648L41.2537 83.2463Z" fill="#817A87"/>
<path d="M139.783 49.6998C140.451 51.0189 140.343 52.8381 140.37 54.3462C143.926 58.7732 144.415 62.2847 145.268 67.9619C145.42 68.9772 145.087 70.9085 145.375 71.9155C144.483 71.7864 142.641 71.6224 142.138 70.877C139.993 67.6947 140.182 64.7004 135.483 65.2715C135.066 64.9049 134.768 64.0702 134.528 63.5262L134.883 63.0815C135.782 62.9559 136.064 62.8839 136.915 62.5696C137.654 60.8522 136.91 60.8423 136.828 59.1604C136.678 56.1006 138.281 57.2109 139.745 56.9954L140.314 56.1866C139.442 55.4757 136.869 53.6582 136.461 52.853C137.425 52.6816 138.207 52.4701 139.146 52.2177C140.071 51.2956 139.781 51.3783 139.783 49.6998Z" fill="#1A3F6C"/>
<path d="M140.314 56.1866C142.977 58.1859 143.118 64.0351 143.48 67.2879C140.65 64.4847 139.127 63.0702 134.883 63.0815C135.782 62.9559 136.064 62.8839 136.915 62.5696C137.654 60.8522 136.91 60.8423 136.828 59.1604C136.678 56.1006 138.281 57.2109 139.745 56.9954L140.314 56.1866Z" fill="#C8C7D0"/>
<path d="M117.097 60.3389C114.237 60.7932 107.805 59.0239 106.57 56.2987L106.951 55.5473C108.56 55.5136 112.972 58.8723 115.382 58.635C120.492 58.132 122.845 53.8512 127.408 52.5579C124.958 55.7465 122.474 56.7509 120.048 59.6427C119.953 59.7556 119.97 59.8038 120.035 59.9478C121.733 63.7026 123.909 61.294 126.143 62.0511C126.606 62.2083 126.709 64.319 128.478 65.2211C130.342 65.2666 132.724 64.198 134.528 63.5262C134.768 64.0702 135.066 64.9049 135.483 65.2715C136.481 67.5867 137.054 68.7254 136.34 71.2409L135.138 71.6932C131.803 70.0483 134.285 69.8187 133.156 66.7285C132.041 66.3414 129.843 67.0726 128.106 67.1574C124.115 64.8148 119.886 63.3144 117.097 60.3389Z" fill="#2A3665"/>
<path d="M95.466 138.407C97.9314 137.73 98.5932 140.469 103.491 140.248C103.437 140.745 103.434 141.61 103.165 141.928C100.153 147.125 105.461 148.377 99.4587 153.744L98.6317 153.688C99.1371 152.196 100.37 152.412 100.875 149.996C99.8244 150.09 98.7037 151.749 97.019 152.245C96.4026 147.955 94.747 142.233 95.466 138.407Z" fill="#C8C7D0"/>
<path d="M95.4661 138.407C97.9315 137.73 98.5934 140.469 103.491 140.248C103.437 140.745 103.434 141.61 103.165 141.928C101.58 140.903 97.8626 143.657 95.4661 138.407Z" fill="#1A5190"/>
<path d="M96.9613 118.476C101.154 114.235 100.387 113.625 103.2 110.123C103.744 112.231 104.213 114.009 104.982 116.043C106.185 119.224 108.92 121.469 107.459 125.059L106.702 125.569L105.521 125.285C104.948 123.615 105.265 122.763 104.208 122.029C103.119 121.888 101.202 123.139 100.392 123.849L99.164 122.294C99.2743 120.882 98.4591 120.468 97.4543 119.909L96.9613 118.476Z" fill="#198AC4"/>
<path d="M123.807 140.884C122.778 137.399 122.203 136.725 118.772 135.794C119.113 135.48 119.41 135.372 119.888 135.361C126.474 135.209 126.188 149.066 133.015 147.938L133.164 147.405C131.676 145.106 126.611 137.36 127.299 134.872L128.708 135.033C130.01 138.2 131.018 141.99 132.949 144.662C133.942 146.036 136.179 145.971 136.403 147.289C131.473 151.811 124.586 145.256 123.807 140.884Z" fill="#2A3665"/>
<path d="M98.9496 28.9562C100.399 27.6045 101.317 26.2045 103.118 25.4579C98.5936 31.1355 99.6447 33.6712 92.7903 40.3194C94.2004 40.6035 96.2396 40.8657 97.3429 41.6932L97.4523 42.3686C96.252 42.7926 91.6372 41.2782 88.3675 41.7736C84.2151 42.4028 79.9084 46.9095 78.0006 47.0776C78.0046 45.5445 82.8402 42.5325 84.205 41.8283C85.9468 41.0715 88.0737 40.768 89.83 40.0049C94.9387 37.7853 96.972 33.8288 98.9496 28.9562Z" fill="#1E1D27"/>
<path d="M77.6015 66.4804C77.1506 64.8681 76.3189 61.8779 77.5366 60.6021L78.3655 60.9837C79.8149 66.2477 79.9447 66.9263 84.8592 69.325L83.3595 70.1175C81.8112 69.3359 80.2391 68.2576 78.7752 67.3045C77.2786 68.0268 75.7696 68.9242 74.1166 68.8133L73.8142 68.4489C74.6391 67.4142 76.3227 66.9532 77.6015 66.4804Z" fill="#1E1D27"/>
<path d="M90.08 70.308C95.0929 69.1046 94.3832 66.9861 96.826 63.7575L97.8687 63.6548C98.4145 65.0143 98.5311 65.36 99.7336 66.186C99.3868 66.8768 96.6241 70.8417 96.6371 70.7637C96.4364 70.249 95.7081 69.2955 95.3578 68.8038C93.7427 70.0094 93.2427 70.3423 91.4015 71.1393C90.9828 70.7787 90.4566 70.6912 89.9114 70.5367L90.08 70.308Z" fill="#1E1D27"/>
<path d="M97.8687 63.6548C98.4145 65.0143 98.5311 65.36 99.7336 66.186C99.3868 66.8768 96.6241 70.8417 96.6371 70.7637C96.4364 70.249 95.7081 69.2955 95.3578 68.8038C96.8566 66.9932 97.4891 65.9594 97.8687 63.6548Z" fill="#D9DDE1"/>
<path d="M107.047 59.0898C106.711 63.8607 105.294 67.0577 107.011 71.6244L106.369 72.8567L105.469 73.0552C103.84 69.6306 104.185 68.0767 104.433 64.3429C105.278 62.0664 105.814 61.1635 107.047 59.0898Z" fill="#1E1D27"/>
<path d="M109.546 130.073C111.076 130.233 116.075 132.337 116.381 133.993L115.132 135.241L113.398 135.857L113.043 135.598C113.581 134.968 113.669 134.861 113.983 134.097C112.099 132.164 110.914 132.378 109.546 130.073Z" fill="#1E1D27"/>
<path d="M685.701 72.1412C695.9 72.1286 705.955 73.8573 713.263 81.3209C718.999 87.178 721.332 95.1393 721.073 103.255C720.909 108.39 720.213 112.333 718.676 115.856C717.142 119.371 714.755 122.504 711.152 126C700.462 133.935 691.341 134.114 678.249 134.023C673.348 133.988 668.554 134.063 663.658 133.822C663.158 128.053 663.215 116.277 663.382 104.216C663.552 91.8947 663.832 79.2958 663.731 72.6334C663.768 72.5988 663.843 72.5494 663.971 72.4908C664.226 72.3751 664.502 72.2996 664.806 72.1979C671.772 72.1256 678.751 72.1499 685.701 72.1412ZM697.171 88.525C692.083 86.1226 685.273 85.9787 678.867 86.1158L678.378 86.1266V86.6168L678.427 119.493L678.428 119.997L678.931 119.992C682.664 119.96 686.568 120.119 690.258 119.603C693.968 119.085 697.52 117.88 700.581 115.093L700.599 115.077L700.617 115.057C703.518 111.812 704.924 108.877 705.172 104.517C705.42 100.136 704.724 96.7457 703.299 94.1364C701.87 91.5221 699.732 89.7346 697.171 88.525Z" fill="#FCFCFC" stroke="#96C4D9"/>
<path d="M439.733 71.1587C439.945 71.1869 440.27 71.299 440.716 71.5249C441.153 71.7464 441.674 72.06 442.269 72.4585C443.46 73.2551 444.921 74.3715 446.567 75.7183C449.859 78.4107 453.863 81.9988 457.881 85.731C465.915 93.1938 473.984 101.209 476.484 103.728L477.412 104.663L477.338 103.348C476.904 95.5953 476.931 80.3777 477.346 72.4478C478.957 72.2927 481.693 72.1305 484.391 72.1069C485.865 72.094 487.32 72.1228 488.568 72.2144C489.727 72.2994 490.667 72.4385 491.277 72.6304C491.353 72.7796 491.447 73.0423 491.542 73.4546C491.661 73.9743 491.769 74.6605 491.864 75.4985C492.054 77.173 492.19 79.4102 492.285 82.0425C492.474 87.3048 492.494 94.1083 492.445 101.066C492.348 114.956 491.977 129.496 492.148 133.469V133.47C492.16 133.75 492.013 134.163 491.731 134.645C491.531 134.989 491.287 135.325 491.062 135.61C489.676 135.06 487.707 133.886 486.71 132.951C476.014 122.903 465.011 112.844 454.413 102.734L453.498 101.862L453.569 103.124C453.933 109.623 454.162 127.373 453.535 133.858C451.926 133.935 448.826 134.1 445.845 134.037C444.205 134.002 442.621 133.897 441.352 133.676C440.718 133.566 440.178 133.428 439.756 133.263C439.395 133.122 439.155 132.974 439.011 132.834C438.443 129.893 438.264 124.679 438.235 119.308C438.206 113.859 438.327 108.352 438.331 104.956C438.334 102.15 438.233 94.4978 438.328 87.0669C438.376 83.3532 438.472 79.7051 438.655 76.7573C438.747 75.2831 438.859 73.9904 438.997 72.9556C439.104 72.1516 439.223 71.532 439.349 71.1089C439.471 71.123 439.598 71.1406 439.733 71.1587Z" fill="#FCFCFC" stroke="#96C4D9"/>
<path d="M292.09 72.1473C296.76 72.1784 301.318 72.2725 304.833 72.4618C306.591 72.5565 308.079 72.6742 309.186 72.8192C309.741 72.8918 310.189 72.9704 310.524 73.0526C310.691 73.0937 310.822 73.1341 310.918 73.1718C310.941 73.1806 310.96 73.1903 310.978 73.1981C311.56 74.7092 311.781 77.0116 311.839 79.453C311.895 81.758 311.809 84.0902 311.783 85.8993C304.244 86.237 293.612 86.0554 286.046 85.9559L285.542 85.9491L285.54 86.453L285.488 95.7372L285.485 96.2274L285.975 96.2401C287.836 96.2884 293.131 96.1267 298.086 96.1376C300.581 96.143 303.004 96.1914 304.907 96.33C305.859 96.3993 306.669 96.4909 307.289 96.6073C307.598 96.6655 307.85 96.7283 308.042 96.7938C308.163 96.8349 308.247 96.8745 308.303 96.9052C308.921 98.3702 309.118 100.608 309.126 103.001C309.134 105.272 308.979 107.574 308.906 109.373C305.941 109.799 302.054 109.752 298.071 109.7C294.194 109.65 290.229 109.598 287.052 110.013L286.429 110.101C286.049 110.16 285.847 110.456 285.749 110.626C285.693 110.721 285.646 110.823 285.607 110.907C285.565 110.998 285.532 111.072 285.497 111.141L285.441 111.25V111.371L285.459 119.704L285.46 120.205L285.96 120.203C288.163 120.196 293.866 120.044 299.448 120.059C302.228 120.067 304.955 120.117 307.159 120.247C308.261 120.312 309.226 120.396 309.998 120.505C310.673 120.6 311.163 120.708 311.465 120.819C311.567 121.01 311.666 121.275 311.753 121.619C311.859 122.037 311.942 122.541 312.006 123.111C312.134 124.253 312.18 125.624 312.18 127.031C312.181 129.589 312.034 132.206 311.972 133.734C310.687 133.856 308.004 133.959 304.561 134.03C300.705 134.11 295.931 134.152 291.188 134.142C286.444 134.133 281.734 134.073 278.007 133.952C276.143 133.891 274.529 133.816 273.281 133.724C272.009 133.63 271.175 133.522 270.828 133.414L270.827 133.413C270.838 133.417 270.792 133.4 270.705 133.292C270.628 133.197 270.559 133.08 270.511 132.982C270.511 132.982 270.488 132.924 270.458 132.757C270.43 132.605 270.402 132.402 270.374 132.145C270.317 131.634 270.265 130.938 270.216 130.079C270.119 128.362 270.038 126.017 269.975 123.247C269.849 117.708 269.791 110.481 269.805 103.201C269.819 95.9206 269.905 88.5889 270.064 82.8397C270.143 79.9648 270.24 77.4887 270.356 75.6141C270.414 74.6767 270.476 73.894 270.542 73.2889C270.583 72.9203 270.624 72.6314 270.663 72.4188C273.799 72.2611 283.134 72.0878 292.09 72.1473Z" fill="#FCFCFC" stroke="#96C4D9"/>
<path d="M777.419 71.936C781.669 71.9308 785.942 71.9706 789.528 72.0874C793.107 72.2039 795.961 72.3968 797.437 72.6909C797.44 72.6944 797.445 72.6988 797.451 72.7056C797.486 72.746 797.536 72.824 797.592 72.9575C797.704 73.225 797.806 73.6259 797.891 74.1489C798.059 75.1882 798.146 76.5984 798.183 78.1265C798.25 80.9271 798.149 84.0473 798.104 85.856C791.136 86.3827 779.018 86.2116 772.073 86.0454L771.566 86.0337L771.561 86.5415L771.488 95.3511L771.484 95.853L771.985 95.855L794.986 95.981C795.103 97.6594 795.426 100.664 795.338 103.486C795.29 105.036 795.117 106.475 794.736 107.558C794.353 108.65 793.809 109.254 793.095 109.397C792.287 109.559 790.779 109.599 788.874 109.577C786.986 109.555 784.767 109.473 782.562 109.407C780.363 109.341 778.178 109.29 776.378 109.332C775.478 109.352 774.665 109.396 773.989 109.474C773.327 109.551 772.748 109.666 772.346 109.851L772.13 109.95L772.071 110.179L771.816 111.164L771.8 111.227V111.292L771.844 119.703L771.847 120.204L772.348 120.2C780.74 120.139 789.149 120.032 797.527 120.177C797.78 121.749 798.101 124.423 798.155 127.03C798.185 128.454 798.135 129.843 797.957 131.013C797.789 132.114 797.517 132.95 797.151 133.456C796.756 133.544 796.006 133.627 794.927 133.694C793.721 133.769 792.163 133.822 790.362 133.858C786.762 133.929 782.209 133.929 777.601 133.89C768.873 133.816 759.97 133.601 756.988 133.469C756.804 129.775 756.705 115.486 756.746 101.592C756.768 94.33 756.827 87.1866 756.931 81.7407C756.983 79.0173 757.045 76.7212 757.119 75.0483C757.157 74.2115 757.198 73.5355 757.24 73.0415C757.262 72.794 757.283 72.5977 757.304 72.4526C757.304 72.4483 757.305 72.4441 757.306 72.4399L757.988 72.2241C760.661 72.1307 768.988 71.9464 777.419 71.936Z" fill="#FCFCFC" stroke="#96C4D9"/>
<path d="M546.27 71.3738C549.916 70.9959 555.925 71.2902 561.406 72.7146C564.149 73.4276 566.736 74.4182 568.821 75.7322C570.906 77.0465 572.457 78.664 573.189 80.6228H573.19C573.24 80.7571 573.257 81.0107 573.182 81.4128C573.11 81.8015 572.964 82.271 572.753 82.7966C572.332 83.8466 571.678 85.0669 570.948 86.2195C570.218 87.3726 569.424 88.438 568.732 89.1833C568.385 89.5579 568.078 89.8353 567.83 90.0037C567.706 90.0878 567.612 90.1344 567.548 90.156C567.521 90.1649 567.504 90.1658 567.497 90.1667C566.043 89.7736 564.597 89.1932 563.126 88.5457C561.664 87.9022 560.145 87.1788 558.621 86.5437C555.553 85.265 552.289 84.2644 548.669 84.7039C547.43 84.8542 546.097 85.5755 545.117 86.5974C544.135 87.6222 543.447 89.0163 543.637 90.5359L543.643 90.5818L543.658 90.6257C544.083 91.9498 545.152 92.9362 546.477 93.7029C547.806 94.4718 549.457 95.0584 551.151 95.5544C552.842 96.0495 554.629 96.4678 556.203 96.8806C557.799 97.2994 559.171 97.7109 560.12 98.196C561.567 98.9364 562.869 99.3964 564.045 99.8972C565.232 100.403 566.355 100.974 567.565 101.972L567.585 101.989L567.606 102.004C576.212 107.732 576.044 119.091 570.35 126.995C566.761 131.977 560.141 134.11 553.932 135.001H553.931C544.45 136.368 532.283 133.273 525.643 126.169C527.19 121.745 529.68 118.249 533.614 115.753C536.494 117.452 540.81 119.813 545.237 120.898C549.658 121.982 554.317 121.82 557.725 118.308L558.052 117.958C558.904 117.002 558.728 115.927 558.589 115.017L558.572 114.914L558.516 114.825L558.401 114.652C557.809 113.8 556.947 113.117 555.923 112.544C554.829 111.931 553.522 111.427 552.098 110.969C550.674 110.512 549.11 110.093 547.502 109.66C545.888 109.225 544.225 108.775 542.582 108.248C535.991 106.134 529.924 102.862 528.964 94.8689C528.087 87.5673 529.025 82.3994 531.815 78.7205C534.605 75.0414 539.327 72.7449 546.27 71.3738Z" fill="#FCFCFC" stroke="#96C4D9"/>
<path d="M373.504 70.4612C375.22 70.8903 376.442 71.8872 377.294 73.4651C387.811 92.9425 398.133 113.757 406.959 134.008C401.9 134.024 396.813 134.064 391.776 133.921C389.76 131.208 387.845 126.883 386.426 123.703L386.293 123.406L385.967 123.407L374.197 123.459L361.685 123.407L361.322 123.406L361.208 123.75C360.894 124.703 359.932 127.113 358.784 129.323C358.21 130.428 357.599 131.465 357.009 132.24C356.713 132.627 356.433 132.936 356.177 133.153C355.914 133.375 355.712 133.469 355.574 133.491C354.132 133.721 351.139 133.979 348.194 134.028C346.723 134.052 345.276 134.023 344.048 133.914C342.992 133.82 342.146 133.669 341.588 133.467C341.605 133.285 341.651 133.022 341.744 132.666C341.889 132.113 342.124 131.403 342.442 130.554C343.078 128.857 344.031 126.639 345.209 124.057C347.564 118.895 350.806 112.312 354.183 105.612C360.928 92.2296 368.225 78.3528 370.002 74.4983C370.311 73.8276 370.891 73.0055 371.578 72.2307C372.203 71.5255 372.893 70.8891 373.504 70.4612ZM372.956 97.6946C370.756 101.821 368.903 105.484 367.549 110.075L367.361 110.71L368.022 110.717L373.8 110.779V110.78L379.594 110.872L380.414 110.885L380.049 110.15C379.634 109.314 378.257 106.311 376.884 103.435C376.201 102.005 375.521 100.61 374.969 99.551C374.694 99.0224 374.447 98.5698 374.246 98.2356C374.146 98.0693 374.052 97.9228 373.968 97.8088C373.925 97.7521 373.88 97.6962 373.833 97.6467C373.792 97.6042 373.722 97.535 373.627 97.4856L373.188 97.2581L372.956 97.6946Z" fill="#FCFCFC" stroke="#96C4D9"/>
<path d="M209.432 72.3728C210.427 84.6974 209.931 107.029 209.765 119.679L209.758 120.171L210.25 120.185C212.183 120.244 218.184 120.058 223.855 120.042C226.705 120.033 229.482 120.068 231.658 120.195C232.747 120.259 233.673 120.346 234.379 120.46C234.731 120.517 235.019 120.578 235.238 120.644C235.381 120.687 235.476 120.73 235.539 120.761C235.832 121.404 236.042 122.312 236.176 123.405C236.318 124.559 236.373 125.875 236.379 127.218C236.388 129.682 236.23 132.192 236.143 133.903C233.799 134.06 231.004 134.084 228.642 134.165C223.077 133.969 217.25 134.099 211.435 134.182C205.747 134.264 200.067 134.297 194.615 133.941C194.054 128.137 194.247 115.771 194.287 109.804C194.366 98.1997 193.775 83.5868 195.146 72.3425C196.764 72.2304 199.331 72.2416 200.921 72.2029L209.432 72.3728Z" fill="#FCFCFC" stroke="#96C4D9"/>
<path d="M618.253 72.2559C619.512 72.2479 620.737 72.2826 621.768 72.3916C622.725 72.4928 623.448 72.6545 623.879 72.8643C624.202 73.5236 624.425 74.4425 624.564 75.4346C624.71 76.4811 624.761 77.5594 624.765 78.3975C624.807 87.1428 624.819 95.8912 624.819 104.64L624.8 130.884C624.799 131.784 624.799 132.495 624.615 133.034C624.528 133.287 624.407 133.48 624.237 133.628C624.072 133.771 623.834 133.893 623.475 133.969C621.482 133.956 618.938 133.999 616.355 133.971C613.945 133.944 611.598 133.851 609.853 133.601C609.568 129.934 609.308 115.806 609.274 102.058C609.256 94.9188 609.299 87.8963 609.43 82.5166C609.496 79.8259 609.583 77.5506 609.696 75.8799C609.752 75.0438 609.814 74.3661 609.881 73.8662C609.915 73.6161 609.949 73.4181 609.983 73.2705C610 73.1968 610.015 73.1403 610.029 73.0996C610.035 73.0808 610.04 73.0678 610.043 73.0596C610.056 73.0503 610.096 73.0194 610.192 72.9746C610.326 72.9115 610.507 72.8503 610.716 72.792C610.923 72.7345 611.14 72.6846 611.344 72.6387C611.512 72.601 611.681 72.5611 611.816 72.5264C613.191 72.4514 615.761 72.2716 618.253 72.2559Z" fill="#FCFCFC" stroke="#96C4D9"/>
<path d="M642.706 119.342C648.503 119.386 651.846 122.62 652.506 126.08C653.163 129.531 651.193 133.413 645.907 134.861C639.81 135.348 636.27 132.287 635.573 128.817C634.878 125.353 636.959 121.194 642.706 119.342Z" fill="#FCFCFC" stroke="#96C4D9"/>
<path d="M416.678 119.746C422.971 119.091 426.579 122.274 427.43 125.805C428.284 129.354 426.41 133.423 421.34 134.703C415.522 135.568 411.895 132.77 410.923 129.385C409.952 126.004 411.563 121.826 416.678 119.746Z" fill="#FCFCFC" stroke="#96C4D9"/>
<path d="M587.555 119.773C591.016 119.557 594.278 120.257 596.304 122.006C597.314 122.879 598.027 124.021 598.315 125.472C598.604 126.93 598.47 128.732 597.727 130.923C597.426 131.813 596.619 132.594 595.556 133.245C594.521 133.878 593.311 134.344 592.293 134.644C586.227 135.148 582.596 132.345 581.67 129.081C580.748 125.831 582.427 121.848 587.555 119.773Z" fill="#FCFCFC" stroke="#96C4D9"/>
<path d="M511.364 119.383C516.914 120.009 519.957 123.298 520.313 126.659C520.668 130.004 518.388 133.701 512.696 135.19C509.774 135.245 507.561 134.424 506.048 133.163C504.523 131.893 503.678 130.154 503.533 128.33C503.246 124.718 505.714 120.669 511.364 119.383Z" fill="#FCFCFC" stroke="#96C4D9"/>
<path d="M248.802 119.686C254.922 119.051 258.546 122.35 259.474 125.907C259.943 127.707 259.727 129.574 258.808 131.077C257.899 132.564 256.276 133.738 253.834 134.132L246.911 133.925C243.329 131.61 242.115 128.895 242.542 126.423C242.979 123.9 245.154 121.417 248.802 119.686Z" fill="#FCFCFC" stroke="#96C4D9"/>
<path d="M326.42 119.684C328.767 119.501 330.426 119.287 332.499 120.389C334.325 121.358 335.775 123.112 336.493 125.102C337.211 127.09 337.188 129.272 336.139 131.122C335.087 132.977 333.506 133.741 331.35 134.306C325.327 135.018 321.623 132.418 320.625 129.249C319.634 126.099 321.219 122.074 326.42 119.684Z" fill="#FCFCFC" stroke="#96C4D9"/>
<path d="M736.113 120.196C740.68 119.219 744.262 122.163 745.111 125.69C745.533 127.445 745.274 129.333 744.124 130.953C742.98 132.565 740.915 133.962 737.632 134.672C731.867 134.629 728.771 131.377 728.408 128.063C728.045 124.756 730.374 121.097 736.085 120.201L736.099 120.199L736.113 120.196Z" fill="#FCFCFC" stroke="#96C4D9"/>
<path d="M173.421 120.586C175.064 120.067 176.597 120.593 178.039 121.603C179.438 122.583 180.674 123.962 181.756 125.134C181.837 126.738 181.914 128.051 181.886 129.165C181.857 130.318 181.714 131.2 181.376 131.914C180.724 133.294 179.249 134.236 175.703 135.074C170.022 135.063 166.9 131.777 166.42 128.41C166.178 126.71 166.6 124.966 167.722 123.548C168.842 122.132 170.688 121.008 173.346 120.604L173.384 120.598L173.421 120.586Z" fill="#FCFCFC" stroke="#96C4D9"/>
<path d="M129.564 86.2177C130.95 86.6483 133.571 86.9521 134.385 87.7715C133.893 88.8013 130.02 92.4477 129.031 93.1542C127.741 93.187 126.077 93.0992 124.993 93.7209C124.099 95.1512 124.533 95.4101 124.948 97.0427L124.5 97.3565C124.65 97.4411 121.485 92.961 121.436 92.812C124.2 89.1658 125.411 87.907 129.564 86.2177Z" fill="#0B5029" fill-opacity="0.0392157"/>
<defs>
<linearGradient id="paint0_linear_35_103" x1="27.9887" y1="109.187" x2="29.9004" y2="113.748" gradientUnits="userSpaceOnUse">
<stop stop-color="#96A2B5"/>
<stop offset="1" stop-color="#B9C1CA"/>
</linearGradient>
<linearGradient id="paint1_linear_35_103" x1="37.8068" y1="136.833" x2="55.711" y2="133.222" gradientUnits="userSpaceOnUse">
<stop stop-color="#0B5CA2"/>
<stop offset="1" stop-color="#2C3874"/>
</linearGradient>
<linearGradient id="paint2_linear_35_103" x1="28.3596" y1="166.455" x2="32.0207" y2="157.773" gradientUnits="userSpaceOnUse">
<stop stop-color="#3D3163"/>
<stop offset="1" stop-color="#24427E"/>
</linearGradient>
<linearGradient id="paint3_linear_35_103" x1="66.1167" y1="166.758" x2="66.0606" y2="168.903" gradientUnits="userSpaceOnUse">
<stop stop-color="#8E91AB"/>
<stop offset="1" stop-color="#899EA5"/>
</linearGradient>
</defs>
</svg>
